<svg id="visual" viewBox="0 0 1920 1080" width="1920" height="1080" xmlns="http://www.w3.org/2000/svg" xmlns:xlink="http://www.w3.org/1999/xlink" version="1.1"><rect x="0" y="0" width="1920" height="1080" fill="#001220"></rect><defs><linearGradient id="grad1_0" x1="43.8%" y1="0%" x2="100%" y2="100%"><stop offset="14.444444444444446%" stop-color="#001220" stop-opacity="1"></stop><stop offset="85.55555555555554%" stop-color="#001220" stop-opacity="1"></stop></linearGradient></defs><defs><linearGradient id="grad2_0" x1="0%" y1="0%" x2="56.3%" y2="100%"><stop offset="14.444444444444446%" stop-color="#001220" stop-opacity="1"></stop><stop offset="85.55555555555554%" stop-color="#001220" stop-opacity="1"></stop></linearGradient></defs><g transform="translate(1920, 0)"><path d="M0 1080C-128.5 1040.7 -257 1001.5 -396.8 958.1C-536.7 914.6 -687.8 867 -763.7 763.7C-839.6 660.3 -840.3 501.3 -880.5 364.7C-920.6 228.1 -1000.3 114.1 -1080 0L0 0Z" fill="#FBAE3C"></path></g><g transform="translate(0, 1080)"><path d="M0 -1080C141.5 -1065.5 283 -1050.9 413.3 -997.8C543.6 -944.6 662.8 -852.9 743.2 -743.2C823.5 -633.4 865 -505.7 914.6 -378.9C964.3 -252 1022.2 -126 1080 0L0 0Z" fill="#FBAE3C"></path></g></svg>